<svg width="28" height="29" viewBox="0 0 28 29" fill="none" xmlns="http://www.w3.org/2000/svg">
    <path
        d="M18.6668 22.6666C17.7386 22.6666 16.8483 22.2978 16.192 21.6415C15.5356 20.9851 15.1668 20.0948 15.1668 19.1666C15.1668 18.2383 15.5356 17.3481 16.192 16.6917C16.8483 16.0353 17.7386 15.6666 18.6668 15.6666C19.5951 15.6666 20.4853 16.0353 21.1417 16.6917C21.7981 17.3481 22.1668 18.2383 22.1668 19.1666C22.1668 20.0948 21.7981 20.9851 21.1417 21.6415C20.4853 22.2978 19.5951 22.6666 18.6668 22.6666ZM9.3335 22.6666C8.40524 22.6666 7.515 22.2978 6.85862 21.6415C6.20225 20.9851 5.8335 20.0948 5.8335 19.1666C5.8335 18.2383 6.20225 17.3481 6.85862 16.6917C7.515 16.0353 8.40524 15.6666 9.3335 15.6666C10.2618 15.6666 11.152 16.0353 11.8084 16.6917C12.4647 17.3481 12.8335 18.2383 12.8335 19.1666C12.8335 20.0948 12.4647 20.9851 11.8084 21.6415C11.152 22.2978 10.2618 22.6666 9.3335 22.6666ZM18.6668 13.3333C17.7386 13.3333 16.8483 12.9645 16.192 12.3081C15.5356 11.6517 15.1668 10.7615 15.1668 9.83325C15.1668 8.90499 15.5356 8.01476 16.192 7.35838C16.8483 6.702 17.7386 6.33325 18.6668 6.33325C19.5951 6.33325 20.4853 6.702 21.1417 7.35838C21.7981 8.01476 22.1668 8.90499 22.1668 9.83325C22.1668 10.7615 21.7981 11.6517 21.1417 12.3081C20.4853 12.9645 19.5951 13.3333 18.6668 13.3333ZM9.3335 13.3333C8.40524 13.3333 7.515 12.9645 6.85862 12.3081C6.20225 11.6517 5.8335 10.7615 5.8335 9.83325C5.8335 8.90499 6.20225 8.01476 6.85862 7.35838C7.515 6.702 8.40524 6.33325 9.3335 6.33325C10.2618 6.33325 11.152 6.702 11.8084 7.35838C12.4647 8.01476 12.8335 8.90499 12.8335 9.83325C12.8335 10.7615 12.4647 11.6517 11.8084 12.3081C11.152 12.9645 10.2618 13.3333 9.3335 13.3333Z"
        fill="#6C7275" />
</svg>