<svg width="81" height="80" viewBox="0 0 81 80" fill="none" xmlns="http://www.w3.org/2000/svg">
    <path
        d="M80.6001 40.0497C80.6001 49.2807 77.3993 58.2262 71.5432 65.362C65.687 72.4977 57.5379 77.3821 48.4842 79.183C39.4305 80.9839 30.0324 79.5898 21.8913 75.2383C13.7502 70.8868 7.36984 63.8471 3.83726 55.3187C0.304676 46.7903 -0.161511 37.3009 2.51813 28.4673C5.19777 19.6337 10.8574 12.0025 18.5328 6.87402C26.2082 1.74551 35.4243 -0.563015 44.6109 0.341787C53.7976 1.24659 62.3862 5.30874 68.9136 11.8361L66.0923 14.6575C60.2176 8.78283 52.4878 5.1269 44.2198 4.31258C35.9519 3.49825 27.6573 5.57593 20.7495 10.1916C13.8417 14.8072 8.748 21.6753 6.33632 29.6255C3.92465 37.5758 4.34422 46.1163 7.52354 53.7918C10.7029 61.4674 16.4452 67.8031 23.7722 71.7195C31.0992 75.6358 39.5574 76.8905 47.7057 75.2697C55.8541 73.6489 63.1883 69.2529 68.4589 62.8307C73.7294 56.4086 76.61 48.3576 76.61 40.0497H80.6001Z"
        fill="#FFA439" />
</svg>