<svg width="21" height="20" viewBox="0 0 21 20" fill="none" xmlns="http://www.w3.org/2000/svg">
    <g clip-path="url(#clip0_3313_2920)">
        <path fill-rule="evenodd" clip-rule="evenodd"
            d="M0.54248 0.000244141H29.0425V1.53931H0.54248V0.000244141ZM0.54248 3.07837H29.0425V4.61743H0.54248V3.07837ZM0.54248 6.15259H29.0425V7.69556H0.54248V6.15259ZM0.54248 9.23071H29.0425V10.7698H0.54248V9.23071ZM0.54248 12.3088H29.0425V13.8479H0.54248V12.3088ZM0.54248 15.3831H29.0425V16.9221H0.54248V15.3831ZM0.54248 18.4612H29.0425V20.0002H0.54248V18.4612Z"
            fill="#BD3D44" />
        <path fill-rule="evenodd" clip-rule="evenodd"
            d="M0.54248 1.53931H29.0425V3.07837H0.54248V1.53931ZM0.54248 4.61743H29.0425V6.15259H0.54248V4.61743ZM0.54248 7.69165H29.0425V9.23071H0.54248V7.69165ZM0.54248 10.7698H29.0425V12.3088H0.54248V10.7698ZM0.54248 13.8479H29.0425V15.387H0.54248V13.8479ZM0.54248 16.9221H29.0425V18.4612H0.54248V16.9221Z"
            fill="white" />
        <path fill-rule="evenodd" clip-rule="evenodd"
            d="M0.542969 0.000244141H11.9424V10.7698H0.542969V0.000244141Z" fill="#192F5D" />
        <path fill-rule="evenodd" clip-rule="evenodd"
            d="M1.49463 0.461182L1.6001 0.886963H1.93408L1.66455 1.14868L1.76709 1.57837L1.49463 1.31274L1.2251 1.57446L1.32764 1.14868L1.05518 0.886963H1.39502L1.49463 0.461182ZM3.396 0.461182L3.49854 0.886963H3.83545L3.56299 1.14868L3.66553 1.57837L3.396 1.31274L3.12353 1.57446L3.22607 1.14868L2.95654 0.886963H3.29053L3.396 0.461182ZM5.29443 0.461182L5.3999 0.886963H5.73096L5.46143 1.14868L5.56396 1.57837L5.2915 1.31274L5.02197 1.57446L5.12451 1.14868L4.85205 0.886963H5.18896L5.29443 0.461182ZM7.1958 0.461182L7.29834 0.886963H7.63525L7.36279 1.14868L7.46826 1.57837L7.1958 1.31274L6.92334 1.57446L7.02881 1.14868L6.75635 0.886963H7.09033L7.1958 0.461182ZM9.09424 0.461182L9.19971 0.886963H9.53369L9.26416 1.14868L9.3667 1.57837L9.09424 1.31274L8.82471 1.57446L8.92725 1.14868L8.65771 0.886963H8.9917L9.09424 0.461182ZM10.9956 0.461182L11.0981 0.886963H11.4351L11.1626 1.14868L11.2681 1.57837L10.9956 1.31274L10.7231 1.57446L10.8286 1.14868L10.5562 0.886963H10.8931L10.9956 0.461182ZM2.44678 1.53931L2.54932 1.96509H2.88623L2.61377 2.22681L2.71338 2.65259L2.44971 2.39087L2.17725 2.65259L2.27393 2.22681L2.01025 1.96509H2.34424L2.44678 1.53931ZM4.34521 1.53931L4.45068 1.96509H4.78467L4.51221 2.22681L4.61768 2.65259L4.34521 2.39087L4.07275 2.65259L4.17822 2.22681L3.90576 1.96509H4.24268L4.34521 1.53931ZM6.24658 1.53931L6.34912 1.96509H6.68604L6.41357 2.22681L6.51611 2.65259L6.24658 2.39087L5.97412 2.65259L6.07666 2.22681L5.80713 1.96509H6.14111L6.24658 1.53931ZM8.14502 1.53931L8.25049 1.96509H8.58447L8.31201 2.22681L8.41748 2.65259L8.14502 2.39087L7.87549 2.65259L7.97803 2.22681L7.70557 1.96509H8.04541L8.14502 1.53931ZM10.0464 1.53931L10.1489 1.96509H10.4858L10.2134 2.22681L10.3159 2.65259L10.0464 2.39087L9.77393 2.65259L9.87646 2.22681L9.60693 1.96509H9.94092L10.0464 1.53931ZM1.49463 2.61353L1.6001 3.04712H1.93408L1.66455 3.30884L1.76709 3.73462L1.49463 3.46899L1.2251 3.73462L1.32764 3.30493L1.05518 3.04321H1.39502L1.49463 2.61353ZM3.396 2.61353L3.49854 3.04321H3.83545L3.56299 3.30493L3.66553 3.73071L3.396 3.46509L3.12353 3.73071L3.22607 3.30103L2.95654 3.03931H3.29053L3.396 2.61353ZM5.29443 2.61353L5.3999 3.04321H5.73096L5.46143 3.30493L5.56396 3.73071L5.2915 3.46509L5.02197 3.73071L5.12451 3.30103L4.85205 3.03931H5.18896L5.29443 2.61353ZM7.1958 2.61353L7.29834 3.04321H7.63525L7.36279 3.30493L7.46826 3.73071L7.1958 3.46509L6.92334 3.73071L7.02881 3.30103L6.75635 3.03931H7.09033L7.1958 2.61353ZM9.09424 2.61353L9.19971 3.04321H9.53369L9.26416 3.30493L9.3667 3.73071L9.09424 3.46509L8.82471 3.73071L8.92725 3.30103L8.65771 3.03931H8.9917L9.09424 2.61353ZM10.9956 2.61353L11.0981 3.04321H11.4351L11.1626 3.30493L11.2681 3.73071L10.9956 3.46509L10.7231 3.73071L10.8286 3.30103L10.5562 3.03931H10.8931L10.9956 2.61353ZM2.44678 3.69165L2.54932 4.11743H2.88623L2.61377 4.37915L2.71631 4.80884L2.44678 4.54321L2.17432 4.80493L2.27686 4.37915L2.00732 4.11743H2.34131L2.44678 3.69165ZM4.34521 3.69165L4.45068 4.11743H4.78467L4.51221 4.37915L4.61768 4.80884L4.34521 4.54321L4.07275 4.80493L4.17822 4.37915L3.90576 4.11743H4.24268L4.34521 3.69165ZM6.24658 3.69165L6.34912 4.11743H6.68604L6.41357 4.37915L6.51611 4.80884L6.24658 4.54321L5.97412 4.80493L6.07666 4.37915L5.80713 4.11743H6.14111L6.24658 3.69165ZM8.14502 3.69165L8.25049 4.11743H8.58447L8.31494 4.37915L8.41748 4.80884L8.14502 4.54321L7.87549 4.80493L7.97803 4.37915L7.70557 4.11743H8.04541L8.14502 3.69165ZM10.0464 3.69165L10.1489 4.11743H10.4858L10.2134 4.37915L10.3159 4.80884L10.0464 4.54321L9.77393 4.80493L9.87646 4.37915L9.60693 4.11743H9.94092L10.0464 3.69165ZM1.49463 4.76978L1.6001 5.19556H1.93408L1.66455 5.45728L1.76709 5.88696L1.49463 5.62134L1.2251 5.88306L1.32764 5.45728L1.05518 5.19556H1.39502L1.49463 4.76978ZM3.396 4.76978L3.49854 5.19556H3.83545L3.56299 5.45728L3.66553 5.88306L3.396 5.62134L3.12353 5.88306L3.22607 5.45728L2.95654 5.19556H3.29053L3.396 4.76978ZM5.29443 4.76978L5.3999 5.19556H5.73096L5.46143 5.45728L5.56396 5.88696L5.2915 5.62134L5.02197 5.88306L5.12451 5.45728L4.85205 5.19556H5.18896L5.29443 4.76978ZM7.1958 4.76978L7.29834 5.19556H7.63525L7.36279 5.45728L7.46826 5.88696L7.1958 5.62134L6.92334 5.88306L7.02881 5.45728L6.75635 5.19556H7.09033L7.1958 4.76978ZM9.09424 4.76978L9.19971 5.19556H9.53369L9.26416 5.45728L9.3667 5.88696L9.09424 5.62134L8.82471 5.88306L8.92725 5.45728L8.65771 5.19556H8.9917L9.09424 4.76978ZM10.9956 4.76978L11.0981 5.19556H11.4351L11.1626 5.45728L11.2681 5.88696L10.9956 5.62134L10.7231 5.88306L10.8286 5.45728L10.5562 5.19556H10.8931L10.9956 4.76978ZM2.44678 5.8479L2.54932 6.27368H2.88623L2.61377 6.5354L2.71631 6.96118L2.44678 6.69556L2.17432 6.96118L2.27686 6.53149L2.00732 6.26978H2.34131L2.44678 5.8479ZM4.34521 5.8479L4.45068 6.27368H4.78467L4.51221 6.5354L4.61768 6.96118L4.34521 6.69556L4.07275 6.96118L4.17822 6.53149L3.90576 6.26978H4.24268L4.34521 5.8479ZM6.24658 5.8479L6.34912 6.27368H6.68604L6.41357 6.5354L6.51611 6.96118L6.24658 6.69556L5.97412 6.96118L6.07666 6.53149L5.80713 6.26978H6.14111L6.24658 5.8479ZM8.14502 5.8479L8.25049 6.27368H8.58447L8.31494 6.5354L8.41748 6.96118L8.14502 6.69556L7.87549 6.96118L7.97803 6.53149L7.70557 6.26978H8.04541L8.14502 5.8479ZM10.0464 5.8479L10.1489 6.27368H10.4858L10.2134 6.5354L10.3159 6.96118L10.0464 6.69556L9.77393 6.96118L9.87646 6.53149L9.60693 6.26978H9.94092L10.0464 5.8479ZM1.49463 6.92212L1.6001 7.35181H1.93408L1.66455 7.61352L1.76709 8.0354L1.49463 7.77368L1.2251 8.0354L1.32764 7.60962L1.05518 7.3479H1.39502L1.49463 6.92212ZM3.396 6.92212L3.49854 7.35181H3.83545L3.56299 7.61352L3.66846 8.0354L3.396 7.77368L3.12353 8.0354L3.229 7.60962L2.95654 7.3479H3.29053L3.396 6.92212ZM5.29443 6.92212L5.3999 7.35181H5.73096L5.46143 7.61352L5.56396 8.0354L5.2915 7.77368L5.02197 8.0354L5.12451 7.60962L4.85205 7.3479H5.18896L5.29443 6.92212ZM7.1958 6.92212L7.29834 7.35181H7.63525L7.36279 7.61352L7.46826 8.0354L7.1958 7.77368L6.92334 8.0354L7.02881 7.60962L6.75635 7.3479H7.09033L7.1958 6.92212ZM9.09424 6.92212L9.19971 7.35181H9.53369L9.26416 7.61352L9.3667 8.0354L9.09424 7.77368L8.82471 8.0354L8.92725 7.60962L8.65771 7.3479H8.9917L9.09424 6.92212ZM10.9956 6.92212L11.0981 7.35181H11.4351L11.1626 7.61352L11.2681 8.0354L10.9956 7.77368L10.7231 8.0354L10.8286 7.60962L10.5562 7.3479H10.8931L10.9956 6.92212ZM2.44678 8.00024L2.54932 8.42603H2.88623L2.61377 8.68774L2.71631 9.11743L2.44678 8.85181L2.17432 9.11353L2.27686 8.68774L2.00732 8.42603H2.34131L2.44678 8.00024ZM4.34521 8.00024L4.45068 8.42603H4.78467L4.51221 8.68774L4.61768 9.11743L4.34521 8.85181L4.07275 9.11353L4.17822 8.68774L3.90576 8.42603H4.24268L4.34521 8.00024ZM6.24658 8.00024L6.34912 8.42603H6.68604L6.41357 8.68774L6.51611 9.11743L6.24658 8.85181L5.97412 9.11353L6.07666 8.68774L5.80713 8.42603H6.14111L6.24658 8.00024ZM8.14502 8.00024L8.25049 8.42603H8.58447L8.31494 8.68774L8.41748 9.11743L8.14502 8.85181L7.87549 9.11353L7.97803 8.68774L7.70557 8.42603H8.04541L8.14502 8.00024ZM10.0464 8.00024L10.1489 8.42603H10.4858L10.2134 8.68774L10.3159 9.11743L10.0464 8.85181L9.77393 9.11353L9.87646 8.68774L9.60693 8.42603H9.94092L10.0464 8.00024ZM1.49463 9.07837L1.6001 9.50415H1.93408L1.66455 9.76587L1.76709 10.1917L1.49463 9.92993L1.2251 10.1917L1.32764 9.76196L1.05518 9.50024H1.39502L1.49463 9.07837ZM3.396 9.07837L3.49854 9.50415H3.83545L3.56299 9.76587L3.66846 10.1917L3.396 9.92993L3.12353 10.1917L3.229 9.76196L2.95654 9.50024H3.29053L3.396 9.07837ZM5.29443 9.07837L5.3999 9.50415H5.73096L5.46729 9.76587L5.56982 10.1917L5.29736 9.92993L5.02783 10.1917L5.13037 9.76196L4.85791 9.50024H5.19482L5.29443 9.07837ZM7.1958 9.07837L7.29834 9.50415H7.63525L7.36279 9.76587L7.46826 10.1917L7.1958 9.92993L6.92334 10.1917L7.02881 9.76196L6.75635 9.50024H7.09033L7.1958 9.07837ZM9.09424 9.07837L9.19971 9.50415H9.53369L9.26416 9.76587L9.3667 10.1917L9.09424 9.92993L8.82471 10.1917L8.92725 9.76196L8.65771 9.50024H8.9917L9.09424 9.07837ZM10.9956 9.07837L11.0981 9.50415H11.4351L11.1626 9.76587L11.2681 10.1917L10.9956 9.92993L10.7231 10.1917L10.8286 9.76196L10.5562 9.50024H10.8931L10.9956 9.07837Z"
            fill="white" />
    </g>
    <defs>
        <clipPath id="clip0_3313_2920">
            <rect x="0.546875" y="0.000244141" width="20" height="20" rx="10" fill="white" />
        </clipPath>
    </defs>
</svg>