<svg width="24" height="24" viewBox="0 0 24 24" fill="none" xmlns="http://www.w3.org/2000/svg">
    <path
        d="M8.57056 17.9651V8.3131C8.57056 7.9331 8.68456 7.5626 8.89356 7.2491L11.4871 3.3921C11.8956 2.7746 12.9121 2.3376 13.7766 2.6606C14.7076 2.9741 15.3251 4.0191 15.1256 4.9501L14.6316 8.0566C14.5936 8.3416 14.6696 8.5981 14.8311 8.7976C14.9926 8.9781 15.2301 9.0921 15.4866 9.0921H19.3911C20.1416 9.0921 20.7876 9.3961 21.1676 9.9281C21.5286 10.4411 21.5951 11.1061 21.3576 11.7806L19.0206 18.8961C18.7261 20.0741 17.4436 21.0336 16.1706 21.0336H12.4656C11.8291 21.0336 10.9361 20.8151 10.5276 20.4066L9.31156 19.4661C8.84606 19.1146 8.57056 18.5541 8.57056 17.9651Z"
        fill="#151515" />
    <path
        d="M5.5495 6.46069H4.571C3.0985 6.46069 2.5 7.03069 2.5 8.43669V17.9937C2.5 19.3997 3.0985 19.9697 4.571 19.9697H5.5495C7.022 19.9697 7.6205 19.3997 7.6205 17.9937V8.43669C7.6205 7.03069 7.022 6.46069 5.5495 6.46069Z"
        fill="#151515" />
</svg>