<svg width="24" height="24" viewBox="0 0 24 24" fill="none" xmlns="http://www.w3.org/2000/svg">
    <path
        d="M7.90625 5.76741L10.8512 3.48741C11.2312 3.10741 12.0862 2.91741 12.6562 2.91741H16.2663C17.4063 2.91741 18.6413 3.77241 18.9263 4.91241L21.2062 11.8474C21.6812 13.1774 20.8263 14.3174 19.4013 14.3174H15.6013C15.0313 14.3174 14.5562 14.7924 14.6512 15.4574L15.1262 18.4974C15.3162 19.3524 14.7462 20.3024 13.8912 20.5874C13.1312 20.8724 12.1812 20.4924 11.8012 19.9224L7.90625 14.1274"
        stroke="#151515" stroke-width="1.425" stroke-miterlimit="10" />
    <path
        d="M3.06128 5.76757V15.0776C3.06128 16.4076 3.63128 16.8826 4.96128 16.8826H5.91128C7.24128 16.8826 7.81128 16.4076 7.81128 15.0776V5.76757C7.81128 4.43757 7.24128 3.96257 5.91128 3.96257H4.96128C3.63128 3.96257 3.06128 4.43757 3.06128 5.76757Z"
        stroke="#151515" stroke-width="1.425" stroke-linecap="round" stroke-linejoin="round" />
</svg>