<svg width="140" height="32" viewBox="0 0 140 32" fill="none" xmlns="http://www.w3.org/2000/svg">
    <path
        d="M4.28771 28.1584C2.95968 28.5606 1.65628 28.9172 0.415514 29.2473C0.0606333 28.4649 -0.0706962 27.5994 0.0360754 26.7469L3.0147 2.06628C3.08295 1.49648 3.35774 0.971529 3.7871 0.59077C4.21646 0.21001 4.77045 -9.92382e-05 5.34432 0.000259481H25.4545C25.5695 -0.000162103 25.6844 0.00810652 25.798 0.0249471C24.5838 0.449918 23.3222 0.916601 22.0529 1.42125C17.9341 3.06043 14.5894 4.77551 12.1097 6.51713C8.7555 8.87154 6.90198 11.3607 6.59843 13.9162C6.35179 16.0031 6.80143 17.4563 7.92646 18.2569C8.51968 18.6651 9.22725 18.8744 9.94705 18.8546C11.8708 18.8546 14.2669 17.6745 16.9229 16.3673C18.2623 15.7071 19.6492 15.026 20.797 14.6124C22.0169 14.1742 22.5046 14.2083 22.6412 14.233C22.6599 14.287 22.675 14.3421 22.6866 14.398C22.9787 15.9025 22.6354 17.3292 21.6337 18.7616C19.2489 22.1917 13.2481 25.4397 4.28771 28.1584Z"
        fill="#0D65D9" />
    <path
        d="M26.1048 32.0003H4.69115C4.1696 32.0012 3.65152 31.9153 3.1582 31.7461C3.81463 31.5627 4.48177 31.3679 5.1597 31.1617C14.9568 28.1945 21.3656 24.6259 24.2076 20.5526C25.6988 18.4164 26.2243 16.1435 25.7652 13.7948C25.4939 12.4023 24.7008 11.744 24.0823 11.4366C21.9727 10.3913 18.996 11.8578 15.545 13.5539C14.1885 14.2217 12.7846 14.9142 11.6216 15.3278C10.3733 15.7736 9.8819 15.7224 9.75669 15.6958C9.71305 15.5915 9.59533 15.212 9.70537 14.2786C10.0734 11.1862 14.8581 7.65554 23.1754 4.33735C24.7634 3.70559 26.3494 3.13264 27.8463 2.62988L30.7566 26.747C30.8359 27.4052 30.7749 28.0728 30.5774 28.7057C30.38 29.3387 30.0508 29.9226 29.6112 30.419C29.1717 30.9153 28.6319 31.3129 28.0275 31.5855C27.4231 31.8581 26.7678 31.9994 26.1048 32.0003Z"
        fill="#0D65D9" />
    <path
        d="M48.6435 11.7804C48.4336 9.38863 46.95 8.19274 44.1927 8.19274C42.9684 8.19274 42.0116 8.4457 41.3223 8.95162C40.99 9.18607 40.7214 9.49969 40.5408 9.86408C40.3603 10.2285 40.2735 10.6321 40.2883 11.0385C40.2883 11.8619 40.5413 12.4267 41.0472 12.7328C41.5531 13.0388 42.6775 13.4119 44.4204 13.8521C44.8814 13.9868 45.2343 14.0816 45.4828 14.1386C47.7594 14.714 49.3101 15.2313 50.1348 15.6904C51.9548 16.6656 52.8642 18.1872 52.8629 20.2551C52.8748 21.0909 52.7187 21.9206 52.4038 22.6949C52.124 23.3822 51.7031 24.0033 51.1686 24.5181C50.6273 25.0238 50.0062 25.4366 49.3303 25.7399C48.6251 26.0639 47.8828 26.3003 47.12 26.4437C46.334 26.5882 45.5364 26.6599 44.7372 26.6581C42.1722 26.6581 40.0955 26.0453 38.5069 24.8198C36.9183 23.5942 36.1233 21.7937 36.1221 19.4185H39.6528C39.6528 20.9109 40.141 22.0163 41.1174 22.7347C42.0938 23.4531 43.3668 23.8123 44.9364 23.8123C46.3138 23.8123 47.3888 23.5297 48.1616 22.9643C48.5377 22.6981 48.8411 22.3419 49.0443 21.9283C49.2474 21.5148 49.3438 21.057 49.3246 20.5966C49.3359 20.303 49.287 20.0101 49.181 19.7361C49.075 19.462 48.914 19.2125 48.708 19.0029C48.3357 18.616 47.8821 18.3167 47.38 18.1265C46.9019 17.9544 46.0696 17.7154 44.8832 17.4093C44.7485 17.3714 44.6423 17.341 44.5664 17.322C42.0204 16.6707 40.3459 16.135 39.5428 15.7151C37.877 14.8538 36.9866 13.5258 36.8715 11.731V11.3288C36.8715 9.51129 37.5556 8.06122 38.9241 6.97856C40.2926 5.89589 42.1266 5.35518 44.426 5.35645C46.6482 5.35645 48.4576 5.88325 49.8539 6.93682C51.2503 7.9904 51.9871 9.6074 52.0642 11.7879L48.6435 11.7804Z"
        fill="black" />
    <path
        d="M61.1651 10.9204C63.0206 10.9204 64.4991 11.284 65.6007 12.0113C66.7024 12.7386 67.2526 13.868 67.2513 15.3997V22.9239C67.2513 23.3451 67.3044 23.6316 67.4107 23.7853C67.5169 23.9389 67.7199 24.0148 68.0272 24.0148C68.2769 24.0136 68.526 23.9939 68.7728 23.956V26.2535C68.0796 26.4431 67.3664 26.5495 66.6481 26.5703C65.2568 26.5703 64.453 25.9765 64.2367 24.7888C62.9922 25.9765 61.2599 26.5703 59.0402 26.5703C57.5098 26.5703 56.2944 26.1732 55.3939 25.3789C54.4933 24.5846 54.043 23.5095 54.043 22.1537C54.0407 21.7564 54.0891 21.3605 54.1872 20.9755C54.2702 20.6506 54.3807 20.3332 54.5173 20.0269C54.6611 19.7365 54.867 19.4813 55.1206 19.2794L55.8093 18.7103C56.0769 18.5133 56.3786 18.3673 56.6991 18.2796L57.6192 17.978C57.9627 17.8811 58.3127 17.8088 58.6665 17.7617C59.1636 17.6858 59.4937 17.6333 59.6568 17.6042C59.82 17.5751 60.1596 17.5321 60.6756 17.4752C61.8443 17.3222 62.6393 17.1957 63.0605 17.0958C63.4816 16.9959 63.7687 16.8378 63.9218 16.6215C64.0546 16.4678 64.1228 16.1149 64.1228 15.559C64.1228 14.0666 63.111 13.3197 61.0873 13.3184C60.0148 13.3184 59.2299 13.5196 58.7329 13.9218C58.2358 14.324 57.9196 15.0038 57.7843 15.9613H54.6824C55.0189 12.6007 57.1797 10.9204 61.1651 10.9204ZM63.2311 19.1182C62.9741 19.2072 62.7103 19.2745 62.442 19.3193L61.4934 19.4483L60.6452 19.564C60.243 19.6209 59.9281 19.674 59.6966 19.7215C59.4092 19.7854 59.126 19.8671 58.8486 19.9662C58.5657 20.0521 58.3026 20.1933 58.0746 20.3817C57.8752 20.569 57.7141 20.7932 57.6003 21.0419C57.4592 21.3526 57.3905 21.6912 57.3993 22.0323C57.3993 22.7418 57.6339 23.2876 58.1031 23.6695C58.5724 24.0515 59.2282 24.2412 60.0705 24.2387C61.5238 24.2387 62.643 23.846 63.4284 23.0605C63.8686 22.6204 64.0887 21.7686 64.0887 20.505V18.7539C63.813 18.902 63.524 19.024 63.2255 19.1182H63.2311Z"
        fill="black" />
    <path d="M73.4194 26.1976H70.1753V5.75342H73.4194V26.1976Z" fill="black" />
    <path
        d="M87.1572 25.3352C85.9418 26.2344 84.4918 26.6841 82.807 26.6841C80.5684 26.6841 78.7932 25.9612 77.4816 24.5156C76.17 23.0699 75.5142 21.2183 75.5142 18.9606C75.5142 16.6435 76.1889 14.7292 77.5384 13.2178C78.888 11.7064 80.6062 10.9475 82.6931 10.9412C84.8559 10.9412 86.569 11.683 87.8326 13.1666C89.0961 14.6502 89.7285 16.6738 89.7298 19.2376V19.5829H78.7887C78.8266 21.0753 79.2004 22.2288 79.9099 23.0434C80.6195 23.8579 81.6048 24.2645 82.8658 24.2632C83.7676 24.2632 84.4999 24.0476 85.0627 23.6163C85.6256 23.185 86.0682 22.5007 86.3908 21.5635H89.5211C89.1619 23.1787 88.374 24.4359 87.1572 25.3352ZM85.2904 14.4662C84.9535 14.1111 84.5451 13.8317 84.0921 13.6462C83.6391 13.4608 83.1519 13.3736 82.6627 13.3905C81.5914 13.3905 80.7258 13.7351 80.0656 14.4244C79.4053 15.1137 78.9988 16.1091 78.8457 17.4106H86.4534C86.3598 16.166 85.9728 15.1852 85.2923 14.4681L85.2904 14.4662Z"
        fill="black" />
    <path
        d="M100.122 15.6877C99.9314 14.1168 98.8563 13.332 96.8971 13.3333C96.0548 13.3333 95.404 13.4863 94.9449 13.7924C94.7294 13.9241 94.5524 14.1102 94.4315 14.3319C94.3106 14.5537 94.2501 14.8034 94.2562 15.0559C94.2543 15.21 94.2683 15.3638 94.2979 15.515C94.3268 15.6464 94.386 15.7691 94.4706 15.8736L94.7002 16.1468C94.8037 16.2468 94.9264 16.3248 95.0607 16.3764L95.4761 16.5661C95.6488 16.6364 95.8264 16.694 96.0074 16.7387L96.5955 16.8962C96.7397 16.9341 96.9749 16.9872 97.2993 17.0555C97.6238 17.1238 97.8686 17.1751 98.0469 17.213C98.7919 17.3863 99.3325 17.5128 99.669 17.5925C100.167 17.7358 100.656 17.9081 101.134 18.1085C101.649 18.2954 102.129 18.5673 102.555 18.9129C102.901 19.2447 103.187 19.6336 103.401 20.0626C103.664 20.5825 103.794 21.1593 103.78 21.7416C103.802 22.4332 103.654 23.1195 103.348 23.7404C103.043 24.3613 102.59 24.8977 102.029 25.3027C100.863 26.188 99.2934 26.6307 97.3203 26.6307C95.2144 26.6307 93.5967 26.188 92.4673 25.3027C91.3378 24.4173 90.7351 23.1348 90.6592 21.4552H93.7895C93.9603 23.3106 95.1562 24.239 97.3772 24.2402C98.3359 24.2402 99.1067 24.0435 99.6897 23.6502C99.9591 23.4884 100.182 23.2591 100.335 22.9849C100.488 22.7107 100.568 22.4011 100.564 22.0869C100.574 21.7945 100.5 21.5055 100.35 21.254C100.175 20.9965 99.9309 20.7928 99.6462 20.6659C99.3475 20.5106 99.0351 20.3836 98.7128 20.2865C98.4168 20.1992 98.0184 20.0968 97.5213 19.9848L97.3486 19.9563C97.3036 19.9348 97.2557 19.9201 97.2063 19.9127C97.1477 19.9029 97.0899 19.8883 97.0337 19.8691C94.9278 19.353 93.5878 18.9515 93.0136 18.6644C91.6552 18.013 90.9754 16.931 90.9741 15.4183C90.9741 14.027 91.5103 12.9317 92.5829 12.1323C93.6554 11.333 95.139 10.9352 97.0337 10.939C98.8512 10.939 100.339 11.3317 101.498 12.1172C102.656 12.9026 103.236 14.0896 103.236 15.6782L100.122 15.6877Z"
        fill="black" />
    <path
        d="M109.053 8.88394H105.78V5.66821H109.053V8.88394ZM109.053 26.1977H105.78V11.3806H109.053V26.1977Z"
        fill="black" />
    <path
        d="M113.963 11.3799L117.757 22.7801L121.403 11.3799H124.792L119.48 26.2254H115.805L110.405 11.3799H113.963Z"
        fill="black" />
    <path
        d="M136.974 25.3352C135.76 26.2344 134.31 26.6841 132.624 26.6841C130.385 26.6841 128.61 25.9612 127.298 24.5156C125.987 23.0699 125.331 21.2183 125.331 18.9606C125.331 16.6435 126.006 14.7292 127.355 13.2178C128.705 11.7064 130.423 10.9475 132.51 10.9412C134.673 10.9412 136.386 11.683 137.65 13.1666C138.913 14.6502 139.546 16.6738 139.547 19.2376V19.5829H128.608C128.646 21.0753 129.019 22.2288 129.727 23.0434C130.435 23.8579 131.421 24.2645 132.685 24.2632C133.584 24.2632 134.316 24.0476 134.88 23.6163C135.444 23.185 135.886 22.5007 136.208 21.5635H139.338C138.978 23.1787 138.19 24.4359 136.974 25.3352ZM135.109 14.4662C134.772 14.1112 134.364 13.8318 133.911 13.6464C133.458 13.461 132.971 13.3738 132.482 13.3905C131.41 13.3905 130.544 13.7351 129.882 14.4244C129.221 15.1137 128.814 16.1091 128.663 17.4106H136.27C136.175 16.166 135.788 15.1852 135.109 14.4681V14.4662Z"
        fill="black" />
</svg>