<svg width="25" height="26" viewBox="0 0 25 26" fill="none" xmlns="http://www.w3.org/2000/svg">
    <path
        d="M22.0237 7.64292H8.92846M6.5475 7.64292H2.97607M22.0237 19.5477H8.92846M6.5475 19.5477H2.97607M16.0713 13.5953H2.97607M22.0237 13.5953H18.4523M7.73798 5.26196C8.05371 5.26196 8.35652 5.38739 8.57977 5.61065C8.80303 5.8339 8.92846 6.13671 8.92846 6.45244V8.83339C8.92846 9.14913 8.80303 9.45193 8.57977 9.67518C8.35652 9.89844 8.05371 10.0239 7.73798 10.0239C7.42225 10.0239 7.11944 9.89844 6.89619 9.67518C6.67293 9.45193 6.5475 9.14913 6.5475 8.83339V6.45244C6.5475 6.13671 6.67293 5.8339 6.89619 5.61065C7.11944 5.38739 7.42225 5.26196 7.73798 5.26196V5.26196ZM7.73798 17.1667C8.05371 17.1667 8.35652 17.2921 8.57977 17.5154C8.80303 17.7387 8.92846 18.0415 8.92846 18.3572V20.7382C8.92846 21.0539 8.80303 21.3567 8.57977 21.5799C8.35652 21.8032 8.05371 21.9286 7.73798 21.9286C7.42225 21.9286 7.11944 21.8032 6.89619 21.5799C6.67293 21.3567 6.5475 21.0539 6.5475 20.7382V18.3572C6.5475 18.0415 6.67293 17.7387 6.89619 17.5154C7.11944 17.2921 7.42225 17.1667 7.73798 17.1667ZM17.2618 11.2143C17.5775 11.2143 17.8803 11.3398 18.1036 11.563C18.3268 11.7863 18.4523 12.0891 18.4523 12.4048V14.7858C18.4523 15.1015 18.3268 15.4043 18.1036 15.6276C17.8803 15.8508 17.5775 15.9762 17.2618 15.9762C16.9461 15.9762 16.6433 15.8508 16.42 15.6276C16.1967 15.4043 16.0713 15.1015 16.0713 14.7858V12.4048C16.0713 12.0891 16.1967 11.7863 16.42 11.563C16.6433 11.3398 16.9461 11.2143 17.2618 11.2143V11.2143Z"
        stroke="#6C7275" stroke-linecap="round" stroke-linejoin="round" />
</svg>